<svg width="1090" height="60" viewBox="0 0 1090 60" fill="none" xmlns="http://www.w3.org/2000/svg">
<path d="M201.223 37V30.6035H195.861V37H194.602V22.9961H195.861V29.4023H201.223V22.9961H202.482V37H201.223ZM211.779 34.2559C211.779 34.6595 211.701 35.0404 211.545 35.3984C211.395 35.7565 211.187 36.069 210.92 36.3359C210.653 36.6029 210.34 36.8145 209.982 36.9707C209.624 37.1204 209.243 37.1953 208.84 37.1953H208.039C207.635 37.1953 207.255 37.1204 206.896 36.9707C206.538 36.8145 206.226 36.6029 205.959 36.3359C205.692 36.069 205.48 35.7565 205.324 35.3984C205.174 35.0404 205.1 34.6595 205.1 34.2559V29.7441C205.1 29.3405 205.174 28.9596 205.324 28.6016C205.48 28.2435 205.692 27.931 205.959 27.6641C206.226 27.3971 206.538 27.1888 206.896 27.0391C207.255 26.8828 207.635 26.8047 208.039 26.8047H208.84C209.243 26.8047 209.624 26.8828 209.982 27.0391C210.34 27.1888 210.653 27.3971 210.92 27.6641C211.187 27.931 211.395 28.2435 211.545 28.6016C211.701 28.9596 211.779 29.3405 211.779 29.7441V34.2559ZM210.578 29.6758C210.578 29.4349 210.533 29.2103 210.441 29.002C210.35 28.7871 210.227 28.6016 210.07 28.4453C209.914 28.2891 209.729 28.1654 209.514 28.0742C209.305 27.9831 209.081 27.9375 208.84 27.9375H208.039C207.798 27.9375 207.57 27.9831 207.355 28.0742C207.147 28.1654 206.965 28.2891 206.809 28.4453C206.652 28.6016 206.529 28.7871 206.438 29.002C206.346 29.2103 206.301 29.4349 206.301 29.6758V34.3242C206.301 34.5651 206.346 34.793 206.438 35.0078C206.529 35.2161 206.652 35.3984 206.809 35.5547C206.965 35.7109 207.147 35.8346 207.355 35.9258C207.57 36.0169 207.798 36.0625 208.039 36.0625H208.84C209.081 36.0625 209.305 36.0169 209.514 35.9258C209.729 35.8346 209.914 35.7109 210.07 35.5547C210.227 35.3984 210.35 35.2161 210.441 35.0078C210.533 34.793 210.578 34.5651 210.578 34.3242V29.6758ZM224.738 37V29.6758C224.738 29.4349 224.693 29.2103 224.602 29.002C224.51 28.7871 224.387 28.6016 224.23 28.4453C224.074 28.2891 223.889 28.1654 223.674 28.0742C223.465 27.9831 223.241 27.9375 223 27.9375H222.404C222.163 27.9375 221.936 27.9831 221.721 28.0742C221.512 28.1654 221.327 28.2891 221.164 28.4453C221.008 28.6016 220.884 28.7871 220.793 29.002C220.702 29.2103 220.656 29.4349 220.656 29.6758V37H219.465V29.6758C219.465 29.4349 219.419 29.2103 219.328 29.002C219.237 28.7871 219.11 28.6016 218.947 28.4453C218.791 28.2891 218.605 28.1654 218.391 28.0742C218.182 27.9831 217.958 27.9375 217.717 27.9375H217.121C216.88 27.9375 216.652 27.9831 216.438 28.0742C216.229 28.1654 216.047 28.2891 215.891 28.4453C215.734 28.6016 215.611 28.7871 215.52 29.002C215.428 29.2103 215.383 29.4349 215.383 29.6758V37H214.182V27H214.582L215.236 28.0156C215.51 27.6445 215.852 27.3516 216.262 27.1367C216.678 26.9154 217.131 26.8047 217.619 26.8047H217.717C218.283 26.8047 218.794 26.9447 219.25 27.2246C219.706 27.5046 220.057 27.8757 220.305 28.3379C220.428 28.11 220.581 27.9017 220.764 27.7129C220.946 27.5241 221.148 27.3646 221.369 27.2344C221.59 27.0977 221.831 26.9935 222.092 26.9219C222.352 26.8438 222.622 26.8047 222.902 26.8047H223C223.404 26.8047 223.785 26.8828 224.143 27.0391C224.501 27.1888 224.813 27.3971 225.08 27.6641C225.347 27.931 225.555 28.2435 225.705 28.6016C225.861 28.9596 225.939 29.3405 225.939 29.7441V37H224.738ZM235.021 34.2559C235.021 34.6595 234.943 35.0404 234.787 35.3984C234.637 35.7565 234.429 36.069 234.162 36.3359C233.895 36.6029 233.583 36.8145 233.225 36.9707C232.867 37.1204 232.486 37.1953 232.082 37.1953H231.281C230.878 37.1953 230.497 37.1204 230.139 36.9707C229.781 36.8145 229.468 36.6029 229.201 36.3359C228.934 36.069 228.723 35.7565 228.566 35.3984C228.417 35.0404 228.342 34.6595 228.342 34.2559V29.7441C228.342 29.3405 228.417 28.9596 228.566 28.6016C228.723 28.2435 228.934 27.931 229.201 27.6641C229.468 27.3971 229.781 27.1888 230.139 27.0391C230.497 26.8828 230.878 26.8047 231.281 26.8047H232.082C232.486 26.8047 232.867 26.8828 233.225 27.0391C233.583 27.1888 233.895 27.3971 234.162 27.6641C234.429 27.931 234.637 28.2435 234.787 28.6016C234.943 28.9596 235.021 29.3405 235.021 29.7441V32.0977H229.543V34.3242C229.543 34.5651 229.589 34.793 229.68 35.0078C229.771 35.2161 229.895 35.3984 230.051 35.5547C230.207 35.7109 230.389 35.8346 230.598 35.9258C230.812 36.0169 231.04 36.0625 231.281 36.0625H232.082C232.323 36.0625 232.548 36.0169 232.756 35.9258C232.971 35.8346 233.156 35.7109 233.312 35.5547C233.469 35.3984 233.592 35.2161 233.684 35.0078C233.775 34.793 233.82 34.5651 233.82 34.3242V33.6602L235.021 33.8555V34.2559ZM233.82 29.6758C233.82 29.4349 233.775 29.2103 233.684 29.002C233.592 28.7871 233.469 28.6016 233.312 28.4453C233.156 28.2891 232.971 28.1654 232.756 28.0742C232.548 27.9831 232.323 27.9375 232.082 27.9375H231.281C231.04 27.9375 230.812 27.9831 230.598 28.0742C230.389 28.1654 230.207 28.2891 230.051 28.4453C229.895 28.6016 229.771 28.7871 229.68 29.002C229.589 29.2103 229.543 29.4349 229.543 29.6758V31.1602H233.82V29.6758Z" fill="#FF5555"/>
<path d="M267.855 33.7383H263.422L262.504 37H261.195L265.297 22.9961H265.961L270.082 37H268.783L267.855 33.7383ZM263.764 32.5371H267.523L265.678 26.082L265.639 25.5645L265.6 26.082L263.764 32.5371ZM278.158 34.2559C278.158 34.6595 278.08 35.0404 277.924 35.3984C277.774 35.7565 277.566 36.069 277.299 36.3359C277.032 36.6029 276.719 36.8145 276.361 36.9707C276.003 37.1204 275.622 37.1953 275.219 37.1953H274.418C274.014 37.1953 273.633 37.1204 273.275 36.9707C272.917 36.8145 272.605 36.6029 272.338 36.3359C272.071 36.069 271.859 35.7565 271.703 35.3984C271.553 35.0404 271.479 34.6595 271.479 34.2559V22.9961H272.68V27.8398C272.953 27.5143 273.282 27.2604 273.666 27.0781C274.05 26.8958 274.467 26.8047 274.916 26.8047H275.219C275.622 26.8047 276.003 26.8828 276.361 27.0391C276.719 27.1888 277.032 27.3971 277.299 27.6641C277.566 27.931 277.774 28.2435 277.924 28.6016C278.08 28.9596 278.158 29.3405 278.158 29.7441V34.2559ZM276.957 29.6758C276.957 29.4349 276.911 29.2103 276.82 29.002C276.729 28.7871 276.605 28.6016 276.449 28.4453C276.293 28.2891 276.107 28.1654 275.893 28.0742C275.684 27.9831 275.46 27.9375 275.219 27.9375H274.418C274.177 27.9375 273.949 27.9831 273.734 28.0742C273.526 28.1654 273.344 28.2891 273.188 28.4453C273.031 28.6016 272.908 28.7871 272.816 29.002C272.725 29.2103 272.68 29.4349 272.68 29.6758V34.3242C272.68 34.5651 272.725 34.793 272.816 35.0078C272.908 35.2161 273.031 35.3984 273.188 35.5547C273.344 35.7109 273.526 35.8346 273.734 35.9258C273.949 36.0169 274.177 36.0625 274.418 36.0625H275.219C275.46 36.0625 275.684 36.0169 275.893 35.9258C276.107 35.8346 276.293 35.7109 276.449 35.5547C276.605 35.3984 276.729 35.2161 276.82 35.0078C276.911 34.793 276.957 34.5651 276.957 34.3242V29.6758ZM287.24 34.2559C287.24 34.6595 287.162 35.0404 287.006 35.3984C286.856 35.7565 286.648 36.069 286.381 36.3359C286.114 36.6029 285.801 36.8145 285.443 36.9707C285.085 37.1204 284.704 37.1953 284.301 37.1953H283.5C283.096 37.1953 282.715 37.1204 282.357 36.9707C281.999 36.8145 281.687 36.6029 281.42 36.3359C281.153 36.069 280.941 35.7565 280.785 35.3984C280.635 35.0404 280.561 34.6595 280.561 34.2559V29.7441C280.561 29.3405 280.635 28.9596 280.785 28.6016C280.941 28.2435 281.153 27.931 281.42 27.6641C281.687 27.3971 281.999 27.1888 282.357 27.0391C282.715 26.8828 283.096 26.8047 283.5 26.8047H284.301C284.704 26.8047 285.085 26.8828 285.443 27.0391C285.801 27.1888 286.114 27.3971 286.381 27.6641C286.648 27.931 286.856 28.2435 287.006 28.6016C287.162 28.9596 287.24 29.3405 287.24 29.7441V34.2559ZM286.039 29.6758C286.039 29.4349 285.993 29.2103 285.902 29.002C285.811 28.7871 285.688 28.6016 285.531 28.4453C285.375 28.2891 285.189 28.1654 284.975 28.0742C284.766 27.9831 284.542 27.9375 284.301 27.9375H283.5C283.259 27.9375 283.031 27.9831 282.816 28.0742C282.608 28.1654 282.426 28.2891 282.27 28.4453C282.113 28.6016 281.99 28.7871 281.898 29.002C281.807 29.2103 281.762 29.4349 281.762 29.6758V34.3242C281.762 34.5651 281.807 34.793 281.898 35.0078C281.99 35.2161 282.113 35.3984 282.27 35.5547C282.426 35.7109 282.608 35.8346 282.816 35.9258C283.031 36.0169 283.259 36.0625 283.5 36.0625H284.301C284.542 36.0625 284.766 36.0169 284.975 35.9258C285.189 35.8346 285.375 35.7109 285.531 35.5547C285.688 35.3984 285.811 35.2161 285.902 35.0078C285.993 34.793 286.039 34.5651 286.039 34.3242V29.6758ZM295.922 37L295.258 35.9844C294.984 36.3555 294.643 36.6517 294.232 36.873C293.822 37.0879 293.373 37.1953 292.885 37.1953H292.582C292.178 37.1953 291.798 37.1204 291.439 36.9707C291.081 36.8145 290.769 36.6029 290.502 36.3359C290.235 36.069 290.023 35.7565 289.867 35.3984C289.717 35.0404 289.643 34.6595 289.643 34.2559V27H290.844V34.3242C290.844 34.5651 290.889 34.793 290.98 35.0078C291.072 35.2161 291.195 35.3984 291.352 35.5547C291.508 35.7109 291.69 35.8346 291.898 35.9258C292.113 36.0169 292.341 36.0625 292.582 36.0625H293.383C293.624 36.0625 293.848 36.0169 294.057 35.9258C294.271 35.8346 294.457 35.7109 294.613 35.5547C294.77 35.3984 294.893 35.2161 294.984 35.0078C295.076 34.793 295.121 34.5651 295.121 34.3242V27H296.322V37H295.922ZM302.367 37C302.003 37 301.658 36.9316 301.332 36.7949C301.013 36.6582 300.733 36.4694 300.492 36.2285C300.258 35.9876 300.069 35.7077 299.926 35.3887C299.789 35.0697 299.721 34.7279 299.721 34.3633V28.1426H297.924V27H299.721V24.5977L300.922 24.4023V27H303.461V28.1426H300.922V34.4219C300.922 34.6237 300.958 34.8125 301.029 34.9883C301.107 35.1576 301.212 35.3073 301.342 35.4375C301.472 35.5677 301.625 35.6719 301.801 35.75C301.977 35.8216 302.165 35.8574 302.367 35.8574H303.461V37H302.367ZM318.363 33.7578C318.363 34.2331 318.272 34.679 318.09 35.0957C317.914 35.5124 317.67 35.877 317.357 36.1895C317.045 36.502 316.68 36.7493 316.264 36.9316C315.847 37.1074 315.401 37.1953 314.926 37.1953H313.93C313.454 37.1953 313.005 37.1074 312.582 36.9316C312.165 36.7493 311.801 36.502 311.488 36.1895C311.176 35.877 310.928 35.5124 310.746 35.0957C310.57 34.679 310.482 34.2331 310.482 33.7578V22.9961H311.742V33.7578C311.742 34.0703 311.801 34.3633 311.918 34.6367C312.035 34.9036 312.195 35.1413 312.396 35.3496C312.605 35.5514 312.842 35.7109 313.109 35.8281C313.383 35.9453 313.676 36.0039 313.988 36.0039H314.867C315.18 36.0039 315.469 35.9453 315.736 35.8281C316.01 35.7109 316.247 35.5514 316.449 35.3496C316.651 35.1413 316.811 34.9036 316.928 34.6367C317.045 34.3633 317.104 34.0703 317.104 33.7578V22.9961H318.363V33.7578ZM327.846 34.4609C327.846 34.8646 327.764 35.2357 327.602 35.5742C327.439 35.9062 327.217 36.1927 326.938 36.4336C326.658 36.6745 326.332 36.8633 325.961 37C325.596 37.1302 325.212 37.1953 324.809 37.1953H324.008C323.604 37.1953 323.217 37.1204 322.846 36.9707C322.481 36.8145 322.159 36.6029 321.879 36.3359C321.605 36.069 321.384 35.7565 321.215 35.3984C321.052 35.0404 320.971 34.6595 320.971 34.2559V33.8555L322.172 33.6602V34.3242C322.172 34.5651 322.221 34.793 322.318 35.0078C322.423 35.2161 322.559 35.3984 322.729 35.5547C322.898 35.7109 323.093 35.8346 323.314 35.9258C323.536 36.0169 323.767 36.0625 324.008 36.0625H324.809C325.049 36.0625 325.281 36.0267 325.502 35.9551C325.723 35.8835 325.919 35.7826 326.088 35.6523C326.264 35.5156 326.4 35.3529 326.498 35.1641C326.602 34.9753 326.654 34.7604 326.654 34.5195C326.654 34.1615 326.576 33.8685 326.42 33.6406C326.264 33.4128 326.055 33.224 325.795 33.0742C325.541 32.918 325.248 32.791 324.916 32.6934C324.59 32.5892 324.255 32.4883 323.91 32.3906C323.565 32.2865 323.227 32.1693 322.895 32.0391C322.569 31.9089 322.276 31.7396 322.016 31.5312C321.762 31.3164 321.557 31.0495 321.4 30.7305C321.244 30.4115 321.166 30.0143 321.166 29.5391C321.166 29.1354 321.244 28.7676 321.4 28.4355C321.557 28.097 321.768 27.8073 322.035 27.5664C322.302 27.3255 322.611 27.14 322.963 27.0098C323.321 26.873 323.702 26.8047 324.105 26.8047H324.809C325.212 26.8047 325.593 26.8828 325.951 27.0391C326.309 27.1888 326.622 27.3971 326.889 27.6641C327.156 27.931 327.364 28.2435 327.514 28.6016C327.67 28.9596 327.748 29.3405 327.748 29.7441V29.7832L326.547 29.9785V29.6758C326.547 29.4349 326.501 29.2103 326.41 29.002C326.319 28.7871 326.195 28.6016 326.039 28.4453C325.883 28.2891 325.697 28.1654 325.482 28.0742C325.274 27.9831 325.049 27.9375 324.809 27.9375H324.105C323.865 27.9375 323.637 27.9733 323.422 28.0449C323.214 28.1165 323.031 28.2207 322.875 28.3574C322.719 28.4876 322.595 28.6471 322.504 28.8359C322.413 29.0247 322.367 29.2396 322.367 29.4805C322.367 29.8255 322.445 30.1087 322.602 30.3301C322.758 30.5449 322.963 30.7272 323.217 30.877C323.477 31.0267 323.77 31.1536 324.096 31.2578C324.428 31.3555 324.763 31.4596 325.102 31.5703C325.447 31.6745 325.782 31.7949 326.107 31.9316C326.439 32.0684 326.732 32.2441 326.986 32.459C327.247 32.6738 327.455 32.944 327.611 33.2695C327.768 33.5885 327.846 33.9857 327.846 34.4609Z" fill="black"/>
<path d="M362.482 28.1816C362.482 28.6569 362.391 29.1029 362.209 29.5195C362.033 29.9362 361.789 30.3008 361.477 30.6133C361.164 30.9258 360.796 31.1732 360.373 31.3555C359.956 31.5312 359.51 31.6191 359.035 31.6191H355.861V37H354.602V22.9961H359.035C359.51 22.9961 359.956 23.0872 360.373 23.2695C360.796 23.4453 361.164 23.6895 361.477 24.002C361.789 24.3145 362.033 24.6823 362.209 25.1055C362.391 25.5221 362.482 25.9681 362.482 26.4434V28.1816ZM361.223 26.4434C361.223 26.1309 361.164 25.8411 361.047 25.5742C360.93 25.3008 360.767 25.0632 360.559 24.8613C360.357 24.653 360.119 24.4902 359.846 24.373C359.579 24.2559 359.289 24.1973 358.977 24.1973H355.861V30.418H358.977C359.289 30.418 359.579 30.3594 359.846 30.2422C360.119 30.125 360.357 29.9655 360.559 29.7637C360.767 29.5618 360.93 29.3275 361.047 29.0605C361.164 28.7871 361.223 28.4941 361.223 28.1816V26.4434ZM367.434 28.1426C367.193 28.1426 366.965 28.1882 366.75 28.2793C366.542 28.3704 366.359 28.4941 366.203 28.6504C366.047 28.8066 365.923 28.9922 365.832 29.207C365.741 29.4154 365.695 29.64 365.695 29.8809V37H364.494V27H364.895L365.549 28.0156C365.822 27.6445 366.164 27.3516 366.574 27.1367C366.991 26.9154 367.443 26.8047 367.932 26.8047H368.635V28.1426H367.434ZM370.539 24.5977V22.9961H371.936V24.5977H370.539ZM370.637 37V27H371.838V37H370.637ZM381.33 34.2559C381.33 34.6595 381.252 35.0404 381.096 35.3984C380.946 35.7565 380.738 36.069 380.471 36.3359C380.204 36.6029 379.891 36.8145 379.533 36.9707C379.175 37.1204 378.794 37.1953 378.391 37.1953H377.59C377.186 37.1953 376.805 37.1204 376.447 36.9707C376.089 36.8145 375.777 36.6029 375.51 36.3359C375.243 36.069 375.031 35.7565 374.875 35.3984C374.725 35.0404 374.65 34.6595 374.65 34.2559V29.7441C374.65 29.3405 374.725 28.9596 374.875 28.6016C375.031 28.2435 375.243 27.931 375.51 27.6641C375.777 27.3971 376.089 27.1888 376.447 27.0391C376.805 26.8828 377.186 26.8047 377.59 26.8047H378.391C378.794 26.8047 379.175 26.8828 379.533 27.0391C379.891 27.1888 380.204 27.3971 380.471 27.6641C380.738 27.931 380.946 28.2435 381.096 28.6016C381.252 28.9596 381.33 29.3405 381.33 29.7441V30.1445L380.129 30.3398V29.6758C380.129 29.4349 380.083 29.2103 379.992 29.002C379.901 28.7871 379.777 28.6016 379.621 28.4453C379.465 28.2891 379.279 28.1654 379.064 28.0742C378.856 27.9831 378.632 27.9375 378.391 27.9375H377.59C377.349 27.9375 377.121 27.9831 376.906 28.0742C376.698 28.1654 376.516 28.2891 376.359 28.4453C376.203 28.6016 376.079 28.7871 375.988 29.002C375.897 29.2103 375.852 29.4349 375.852 29.6758V34.3242C375.852 34.5651 375.897 34.793 375.988 35.0078C376.079 35.2161 376.203 35.3984 376.359 35.5547C376.516 35.7109 376.698 35.8346 376.906 35.9258C377.121 36.0169 377.349 36.0625 377.59 36.0625H378.391C378.632 36.0625 378.856 36.0169 379.064 35.9258C379.279 35.8346 379.465 35.7109 379.621 35.5547C379.777 35.3984 379.901 35.2161 379.992 35.0078C380.083 34.793 380.129 34.5651 380.129 34.3242V33.6602L381.33 33.8555V34.2559ZM384.035 24.5977V22.9961H385.432V24.5977H384.035ZM384.133 37V27H385.334V37H384.133ZM393.625 37V29.6758C393.625 29.4349 393.579 29.2103 393.488 29.002C393.397 28.7871 393.273 28.6016 393.117 28.4453C392.961 28.2891 392.775 28.1654 392.561 28.0742C392.352 27.9831 392.128 27.9375 391.887 27.9375H391.086C390.845 27.9375 390.617 27.9831 390.402 28.0742C390.194 28.1654 390.012 28.2891 389.855 28.4453C389.699 28.6016 389.576 28.7871 389.484 29.002C389.393 29.2103 389.348 29.4349 389.348 29.6758V37H388.146V27H388.547L389.201 28.0156C389.475 27.6445 389.816 27.3516 390.227 27.1367C390.643 26.9154 391.096 26.8047 391.584 26.8047H391.887C392.29 26.8047 392.671 26.8828 393.029 27.0391C393.387 27.1888 393.7 27.3971 393.967 27.6641C394.234 27.931 394.442 28.2435 394.592 28.6016C394.748 28.9596 394.826 29.3405 394.826 29.7441V37H393.625ZM404.006 38.2598C404.006 38.6634 403.928 39.0345 403.771 39.373C403.622 39.7116 403.413 40.0013 403.146 40.2422C402.88 40.4831 402.567 40.6686 402.209 40.7988C401.851 40.9355 401.47 41.0039 401.066 41.0039H400.568C400.165 41.0039 399.784 40.9355 399.426 40.7988C399.068 40.6686 398.755 40.4831 398.488 40.2422C398.221 40.0013 398.01 39.7116 397.854 39.373C397.704 39.0345 397.629 38.6634 397.629 38.2598V38.2207C397.629 37.8301 397.701 37.472 397.844 37.1465C397.987 36.821 398.182 36.5378 398.43 36.2969C398.117 36.1081 397.867 35.8542 397.678 35.5352C397.495 35.2096 397.404 34.8516 397.404 34.4609C397.404 34.1094 397.479 33.7839 397.629 33.4844C397.779 33.1784 397.984 32.931 398.244 32.7422C397.932 32.4688 397.684 32.14 397.502 31.7559C397.32 31.3717 397.229 30.9518 397.229 30.4961V29.7441C397.229 29.3405 397.303 28.9596 397.453 28.6016C397.609 28.2435 397.821 27.931 398.088 27.6641C398.355 27.3971 398.667 27.1888 399.025 27.0391C399.383 26.8828 399.764 26.8047 400.168 26.8047H400.666C401.154 26.8047 401.604 26.9154 402.014 27.1367C402.43 27.3516 402.775 27.6445 403.049 28.0156L403.703 27H404.104V30.4961C404.104 30.8997 404.025 31.2806 403.869 31.6387C403.719 31.9967 403.511 32.3092 403.244 32.5762C402.977 32.8431 402.665 33.0547 402.307 33.2109C401.949 33.3607 401.568 33.4355 401.164 33.4355H399.426C399.289 33.4355 399.159 33.4648 399.035 33.5234C398.911 33.5755 398.801 33.6471 398.703 33.7383C398.612 33.8294 398.54 33.9401 398.488 34.0703C398.436 34.194 398.41 34.3242 398.41 34.4609C398.41 34.5977 398.436 34.7279 398.488 34.8516C398.54 34.9753 398.612 35.0859 398.703 35.1836C398.801 35.2747 398.911 35.3464 399.035 35.3984C399.159 35.4505 399.289 35.4766 399.426 35.4766H401.066C401.47 35.4766 401.851 35.5449 402.209 35.6816C402.567 35.8118 402.88 35.9974 403.146 36.2383C403.413 36.4792 403.622 36.7689 403.771 37.1074C403.928 37.446 404.006 37.8171 404.006 38.2207V38.2598ZM402.912 29.6758C402.912 29.4349 402.867 29.2103 402.775 29.002C402.684 28.7871 402.557 28.6016 402.395 28.4453C402.238 28.2891 402.053 28.1654 401.838 28.0742C401.63 27.9831 401.405 27.9375 401.164 27.9375H400.168C399.927 27.9375 399.699 27.9831 399.484 28.0742C399.276 28.1654 399.094 28.2891 398.938 28.4453C398.781 28.6016 398.658 28.7871 398.566 29.002C398.475 29.2103 398.43 29.4349 398.43 29.6758V30.5645C398.43 30.8053 398.475 31.0332 398.566 31.248C398.658 31.4564 398.781 31.6387 398.938 31.7949C399.094 31.9512 399.276 32.0749 399.484 32.166C399.699 32.2572 399.927 32.3027 400.168 32.3027H401.164C401.405 32.3027 401.63 32.2572 401.838 32.166C402.053 32.0749 402.238 31.9512 402.395 31.7949C402.557 31.6387 402.684 31.4564 402.775 31.248C402.867 31.0332 402.912 30.8053 402.912 30.5645V29.6758ZM402.863 38.1621C402.863 37.9212 402.818 37.7031 402.727 37.5078C402.635 37.319 402.512 37.1595 402.355 37.0293C402.199 36.8991 402.014 36.7982 401.799 36.7266C401.59 36.6549 401.366 36.6191 401.125 36.6191H400.51C400.269 36.6191 400.041 36.6549 399.826 36.7266C399.618 36.7982 399.436 36.8991 399.279 37.0293C399.123 37.1595 398.999 37.319 398.908 37.5078C398.817 37.7031 398.771 37.9212 398.771 38.1621V38.3184C398.771 38.5592 398.817 38.7741 398.908 38.9629C398.999 39.1517 399.123 39.3112 399.279 39.4414C399.436 39.5781 399.618 39.6823 399.826 39.7539C400.041 39.8255 400.269 39.8613 400.51 39.8613H401.125C401.366 39.8613 401.59 39.8255 401.799 39.7539C402.014 39.6823 402.199 39.5781 402.355 39.4414C402.512 39.3112 402.635 39.1517 402.727 38.9629C402.818 38.7741 402.863 38.5592 402.863 38.3184V38.1621Z" fill="black"/>
<path d="M432.861 24.1973V29.4023H438.223V30.6035H432.861V37H431.602V22.9961H439.482V24.1973H432.861ZM447.764 34.2559C447.764 34.6595 447.686 35.0404 447.529 35.3984C447.38 35.7565 447.171 36.069 446.904 36.3359C446.637 36.6029 446.325 36.8145 445.967 36.9707C445.609 37.1204 445.228 37.1953 444.824 37.1953H444.023C443.62 37.1953 443.239 37.1204 442.881 36.9707C442.523 36.8145 442.21 36.6029 441.943 36.3359C441.676 36.069 441.465 35.7565 441.309 35.3984C441.159 35.0404 441.084 34.6595 441.084 34.2559V29.7441C441.084 29.3405 441.159 28.9596 441.309 28.6016C441.465 28.2435 441.676 27.931 441.943 27.6641C442.21 27.3971 442.523 27.1888 442.881 27.0391C443.239 26.8828 443.62 26.8047 444.023 26.8047H444.824C445.228 26.8047 445.609 26.8828 445.967 27.0391C446.325 27.1888 446.637 27.3971 446.904 27.6641C447.171 27.931 447.38 28.2435 447.529 28.6016C447.686 28.9596 447.764 29.3405 447.764 29.7441V32.0977H442.285V34.3242C442.285 34.5651 442.331 34.793 442.422 35.0078C442.513 35.2161 442.637 35.3984 442.793 35.5547C442.949 35.7109 443.132 35.8346 443.34 35.9258C443.555 36.0169 443.783 36.0625 444.023 36.0625H444.824C445.065 36.0625 445.29 36.0169 445.498 35.9258C445.713 35.8346 445.898 35.7109 446.055 35.5547C446.211 35.3984 446.335 35.2161 446.426 35.0078C446.517 34.793 446.562 34.5651 446.562 34.3242V33.6602L447.764 33.8555V34.2559ZM446.562 29.6758C446.562 29.4349 446.517 29.2103 446.426 29.002C446.335 28.7871 446.211 28.6016 446.055 28.4453C445.898 28.2891 445.713 28.1654 445.498 28.0742C445.29 27.9831 445.065 27.9375 444.824 27.9375H444.023C443.783 27.9375 443.555 27.9831 443.34 28.0742C443.132 28.1654 442.949 28.2891 442.793 28.4453C442.637 28.6016 442.513 28.7871 442.422 29.002C442.331 29.2103 442.285 29.4349 442.285 29.6758V31.1602H446.562V29.6758ZM456.445 37L455.781 36.0039C455.508 36.362 455.166 36.6517 454.756 36.873C454.346 37.0879 453.896 37.1953 453.408 37.1953H453.105C452.702 37.1953 452.321 37.1204 451.963 36.9707C451.605 36.8145 451.292 36.6029 451.025 36.3359C450.758 36.069 450.547 35.7565 450.391 35.3984C450.241 35.0404 450.166 34.6595 450.166 34.2559V34.1582C450.166 33.7546 450.241 33.3737 450.391 33.0156C450.547 32.6576 450.758 32.3451 451.025 32.0781C451.292 31.8112 451.605 31.6029 451.963 31.4531C452.321 31.2969 452.702 31.2188 453.105 31.2188H455.645V29.6758C455.645 29.4349 455.599 29.2103 455.508 29.002C455.417 28.7871 455.293 28.6016 455.137 28.4453C454.98 28.2891 454.795 28.1654 454.58 28.0742C454.372 27.9831 454.147 27.9375 453.906 27.9375H453.203C452.962 27.9375 452.734 27.9831 452.52 28.0742C452.311 28.1654 452.129 28.2891 451.973 28.4453C451.816 28.6016 451.693 28.7871 451.602 29.002C451.51 29.2103 451.465 29.4349 451.465 29.6758V30.0371L450.264 29.8418V29.7441C450.264 29.3405 450.339 28.9596 450.488 28.6016C450.645 28.2435 450.856 27.931 451.123 27.6641C451.39 27.3971 451.702 27.1888 452.061 27.0391C452.419 26.8828 452.799 26.8047 453.203 26.8047H453.906C454.31 26.8047 454.691 26.8828 455.049 27.0391C455.407 27.1888 455.719 27.3971 455.986 27.6641C456.253 27.931 456.462 28.2435 456.611 28.6016C456.768 28.9596 456.846 29.3405 456.846 29.7441V37H456.445ZM455.645 32.1562H453.105C452.865 32.1562 452.637 32.2018 452.422 32.293C452.214 32.3841 452.031 32.5111 451.875 32.6738C451.719 32.8301 451.595 33.0156 451.504 33.2305C451.413 33.4388 451.367 33.6634 451.367 33.9043V34.3242C451.367 34.5651 451.413 34.793 451.504 35.0078C451.595 35.2161 451.719 35.3984 451.875 35.5547C452.031 35.7109 452.214 35.8346 452.422 35.9258C452.637 36.0169 452.865 36.0625 453.105 36.0625H453.906C454.147 36.0625 454.372 36.0169 454.58 35.9258C454.795 35.8346 454.98 35.7109 455.137 35.5547C455.293 35.3984 455.417 35.2161 455.508 35.0078C455.599 34.793 455.645 34.5651 455.645 34.3242V32.1562ZM462.891 37C462.526 37 462.181 36.9316 461.855 36.7949C461.536 36.6582 461.257 36.4694 461.016 36.2285C460.781 35.9876 460.592 35.7077 460.449 35.3887C460.312 35.0697 460.244 34.7279 460.244 34.3633V28.1426H458.447V27H460.244V24.5977L461.445 24.4023V27H463.984V28.1426H461.445V34.4219C461.445 34.6237 461.481 34.8125 461.553 34.9883C461.631 35.1576 461.735 35.3073 461.865 35.4375C461.995 35.5677 462.148 35.6719 462.324 35.75C462.5 35.8216 462.689 35.8574 462.891 35.8574H463.984V37H462.891ZM472.48 37L471.816 35.9844C471.543 36.3555 471.201 36.6517 470.791 36.873C470.381 37.0879 469.932 37.1953 469.443 37.1953H469.141C468.737 37.1953 468.356 37.1204 467.998 36.9707C467.64 36.8145 467.327 36.6029 467.061 36.3359C466.794 36.069 466.582 35.7565 466.426 35.3984C466.276 35.0404 466.201 34.6595 466.201 34.2559V27H467.402V34.3242C467.402 34.5651 467.448 34.793 467.539 35.0078C467.63 35.2161 467.754 35.3984 467.91 35.5547C468.066 35.7109 468.249 35.8346 468.457 35.9258C468.672 36.0169 468.9 36.0625 469.141 36.0625H469.941C470.182 36.0625 470.407 36.0169 470.615 35.9258C470.83 35.8346 471.016 35.7109 471.172 35.5547C471.328 35.3984 471.452 35.2161 471.543 35.0078C471.634 34.793 471.68 34.5651 471.68 34.3242V27H472.881V37H472.48ZM478.223 28.1426C477.982 28.1426 477.754 28.1882 477.539 28.2793C477.331 28.3704 477.148 28.4941 476.992 28.6504C476.836 28.8066 476.712 28.9922 476.621 29.207C476.53 29.4154 476.484 29.64 476.484 29.8809V37H475.283V27H475.684L476.338 28.0156C476.611 27.6445 476.953 27.3516 477.363 27.1367C477.78 26.9154 478.232 26.8047 478.721 26.8047H479.424V28.1426H478.223ZM487.705 34.2559C487.705 34.6595 487.627 35.0404 487.471 35.3984C487.321 35.7565 487.113 36.069 486.846 36.3359C486.579 36.6029 486.266 36.8145 485.908 36.9707C485.55 37.1204 485.169 37.1953 484.766 37.1953H483.965C483.561 37.1953 483.18 37.1204 482.822 36.9707C482.464 36.8145 482.152 36.6029 481.885 36.3359C481.618 36.069 481.406 35.7565 481.25 35.3984C481.1 35.0404 481.025 34.6595 481.025 34.2559V29.7441C481.025 29.3405 481.1 28.9596 481.25 28.6016C481.406 28.2435 481.618 27.931 481.885 27.6641C482.152 27.3971 482.464 27.1888 482.822 27.0391C483.18 26.8828 483.561 26.8047 483.965 26.8047H484.766C485.169 26.8047 485.55 26.8828 485.908 27.0391C486.266 27.1888 486.579 27.3971 486.846 27.6641C487.113 27.931 487.321 28.2435 487.471 28.6016C487.627 28.9596 487.705 29.3405 487.705 29.7441V32.0977H482.227V34.3242C482.227 34.5651 482.272 34.793 482.363 35.0078C482.454 35.2161 482.578 35.3984 482.734 35.5547C482.891 35.7109 483.073 35.8346 483.281 35.9258C483.496 36.0169 483.724 36.0625 483.965 36.0625H484.766C485.007 36.0625 485.231 36.0169 485.439 35.9258C485.654 35.8346 485.84 35.7109 485.996 35.5547C486.152 35.3984 486.276 35.2161 486.367 35.0078C486.458 34.793 486.504 34.5651 486.504 34.3242V33.6602L487.705 33.8555V34.2559ZM486.504 29.6758C486.504 29.4349 486.458 29.2103 486.367 29.002C486.276 28.7871 486.152 28.6016 485.996 28.4453C485.84 28.2891 485.654 28.1654 485.439 28.0742C485.231 27.9831 485.007 27.9375 484.766 27.9375H483.965C483.724 27.9375 483.496 27.9831 483.281 28.0742C483.073 28.1654 482.891 28.2891 482.734 28.4453C482.578 28.6016 482.454 28.7871 482.363 29.002C482.272 29.2103 482.227 29.4349 482.227 29.6758V31.1602H486.504V29.6758ZM496.982 34.4609C496.982 34.8646 496.901 35.2357 496.738 35.5742C496.576 35.9062 496.354 36.1927 496.074 36.4336C495.794 36.6745 495.469 36.8633 495.098 37C494.733 37.1302 494.349 37.1953 493.945 37.1953H493.145C492.741 37.1953 492.354 37.1204 491.982 36.9707C491.618 36.8145 491.296 36.6029 491.016 36.3359C490.742 36.069 490.521 35.7565 490.352 35.3984C490.189 35.0404 490.107 34.6595 490.107 34.2559V33.8555L491.309 33.6602V34.3242C491.309 34.5651 491.357 34.793 491.455 35.0078C491.559 35.2161 491.696 35.3984 491.865 35.5547C492.035 35.7109 492.23 35.8346 492.451 35.9258C492.673 36.0169 492.904 36.0625 493.145 36.0625H493.945C494.186 36.0625 494.417 36.0267 494.639 35.9551C494.86 35.8835 495.055 35.7826 495.225 35.6523C495.4 35.5156 495.537 35.3529 495.635 35.1641C495.739 34.9753 495.791 34.7604 495.791 34.5195C495.791 34.1615 495.713 33.8685 495.557 33.6406C495.4 33.4128 495.192 33.224 494.932 33.0742C494.678 32.918 494.385 32.791 494.053 32.6934C493.727 32.5892 493.392 32.4883 493.047 32.3906C492.702 32.2865 492.363 32.1693 492.031 32.0391C491.706 31.9089 491.413 31.7396 491.152 31.5312C490.898 31.3164 490.693 31.0495 490.537 30.7305C490.381 30.4115 490.303 30.0143 490.303 29.5391C490.303 29.1354 490.381 28.7676 490.537 28.4355C490.693 28.097 490.905 27.8073 491.172 27.5664C491.439 27.3255 491.748 27.14 492.1 27.0098C492.458 26.873 492.839 26.8047 493.242 26.8047H493.945C494.349 26.8047 494.73 26.8828 495.088 27.0391C495.446 27.1888 495.758 27.3971 496.025 27.6641C496.292 27.931 496.501 28.2435 496.65 28.6016C496.807 28.9596 496.885 29.3405 496.885 29.7441V29.7832L495.684 29.9785V29.6758C495.684 29.4349 495.638 29.2103 495.547 29.002C495.456 28.7871 495.332 28.6016 495.176 28.4453C495.02 28.2891 494.834 28.1654 494.619 28.0742C494.411 27.9831 494.186 27.9375 493.945 27.9375H493.242C493.001 27.9375 492.773 27.9733 492.559 28.0449C492.35 28.1165 492.168 28.2207 492.012 28.3574C491.855 28.4876 491.732 28.6471 491.641 28.8359C491.549 29.0247 491.504 29.2396 491.504 29.4805C491.504 29.8255 491.582 30.1087 491.738 30.3301C491.895 30.5449 492.1 30.7272 492.354 30.877C492.614 31.0267 492.907 31.1536 493.232 31.2578C493.564 31.3555 493.9 31.4596 494.238 31.5703C494.583 31.6745 494.919 31.7949 495.244 31.9316C495.576 32.0684 495.869 32.2441 496.123 32.459C496.383 32.6738 496.592 32.944 496.748 33.2695C496.904 33.5885 496.982 33.9857 496.982 34.4609Z" fill="black"/>
<path d="M108.83 27V24.4683H108.046V23.908H110.245V24.4683H109.473V27H108.83ZM110.564 27V23.908H111.186L112.344 25.4436H112.054L113.179 23.908H113.801V27H113.158V24.6177L113.415 24.6758L112.224 26.2114H112.141L110.991 24.6758L111.207 24.6177V27H110.564Z" fill="black"/>
<path d="M46.5863 41.1301C47.6222 41.1301 48.5386 40.9408 49.3355 40.5623C50.1324 40.1639 50.74 39.5662 51.1583 38.7693V40.7715H55.3419V24.4555H50.8595V33.9881C50.8595 34.9244 50.5806 35.6815 50.0228 36.2592C49.465 36.817 48.7478 37.0959 47.8713 37.0959C46.9947 37.0959 46.2775 36.817 45.7197 36.2592C45.1619 35.6815 44.883 34.9244 44.883 33.9881V24.4555H40.4006V34.3467C40.4006 36.3787 40.9285 38.0223 41.9844 39.2773C43.0601 40.5125 44.5941 41.1301 46.5863 41.1301Z" fill="black"/>
<path d="M58.6181 22.9913H63.1005V18.5089H58.6181V22.9913ZM58.6181 40.7715H63.1005V24.4555H58.6181V40.7715Z" fill="black"/>
<path d="M68.3528 40.7715H72.8352V28.3403H76.3315V24.4555H72.8352V24.2165C72.8352 22.7622 73.6819 22.035 75.3752 22.035C75.6542 22.035 75.9829 22.0649 76.3614 22.1247V18.2997C75.9032 18.2001 75.3752 18.1503 74.7776 18.1503C72.7456 18.1503 71.1618 18.6782 70.0262 19.7341C68.9106 20.7899 68.3528 22.284 68.3528 24.2165V24.4555H65.6036V28.3403H68.3528V40.7715Z" fill="black"/>
<path d="M78.6371 40.7715H83.1195V31.986C83.1195 30.7707 83.4582 29.8344 84.1355 29.177C84.8129 28.4996 85.6994 28.161 86.7951 28.161H88.1996V24.2762H87.2433C86.2473 24.2762 85.3607 24.4655 84.5838 24.844C83.8268 25.2026 83.2391 25.8899 82.8207 26.9059V24.4555H78.6371V40.7715Z" fill="black"/>
<path d="M92.7042 47.4054C95.6924 47.4054 97.854 45.7021 99.1887 42.2955L106.181 24.4555H101.37L97.5153 34.9443L93.6604 24.4555H88.8493L95.2741 40.7715L94.9753 41.4588C94.7362 41.9967 94.4274 42.4748 94.0489 42.8932C93.6704 43.3115 93.0428 43.5207 92.1663 43.5207C91.4491 43.5207 90.7718 43.4211 90.1343 43.2219V46.8974C90.4729 47.0767 90.8614 47.2062 91.2997 47.2859C91.7579 47.3656 92.2261 47.4054 92.7042 47.4054Z" fill="black"/>
<path d="M26.3829 23.8852C26.1564 23.6651 25.8387 23.5651 25.5277 23.6163C25.2162 23.6672 24.9472 23.8628 24.8027 24.1434C24.3057 25.1089 23.6745 25.9961 22.9318 26.7805C23.0058 26.2139 23.0431 25.6439 23.0431 25.0724C23.0431 23.9759 22.8961 22.8474 22.6061 21.7181C21.6527 18.0085 19.1525 14.8714 15.7468 13.1112C15.4503 12.958 15.097 12.9634 14.8053 13.1255C14.5136 13.2878 14.3226 13.5852 14.2964 13.9179C14.0309 17.289 12.2945 20.3559 9.52981 22.3342C9.49322 22.3606 9.4569 22.3873 9.42057 22.4139C9.34534 22.4689 9.27441 22.521 9.20814 22.5647C9.19778 22.5716 9.18749 22.5786 9.17739 22.5858C7.43861 23.8308 6.00391 25.4903 5.0282 27.3854C4.03675 29.3131 3.53406 31.3818 3.53406 33.5336C3.53406 34.6299 3.68101 35.7583 3.97088 36.8879C5.50055 42.8417 10.8585 46.9999 17.0004 46.9999C24.4253 46.9999 30.4659 40.9589 30.4659 33.5336C30.4659 29.872 29.0159 26.4454 26.3829 23.8852Z" fill="#FF5555"/>
<circle cx="16" cy="33" r="4" fill="white"/>
<rect x="910" width="180" height="60" rx="4" fill="black"/>
<path d="M964.534 32.9062C964.534 33.334 964.452 33.7354 964.288 34.1104C964.13 34.4854 963.91 34.8135 963.629 35.0947C963.348 35.376 963.017 35.5986 962.636 35.7627C962.261 35.9209 961.859 36 961.432 36H957.441V23.3965H961.432C961.859 23.3965 962.261 23.4785 962.636 23.6426C963.017 23.8008 963.348 24.0205 963.629 24.3018C963.91 24.583 964.13 24.9141 964.288 25.2949C964.452 25.6699 964.534 26.0713 964.534 26.499V32.9062ZM963.4 26.499C963.4 26.2178 963.348 25.957 963.242 25.7168C963.137 25.4707 962.99 25.2568 962.803 25.0752C962.621 24.8877 962.407 24.7412 962.161 24.6357C961.921 24.5303 961.66 24.4775 961.379 24.4775H958.575V34.9189H961.379C961.66 34.9189 961.921 34.8662 962.161 34.7607C962.407 34.6553 962.621 34.5117 962.803 34.3301C962.99 34.1484 963.137 33.9375 963.242 33.6973C963.348 33.4512 963.4 33.1875 963.4 32.9062V26.499ZM972.884 33.5303C972.884 33.8936 972.813 34.2363 972.673 34.5586C972.538 34.8809 972.351 35.1621 972.11 35.4023C971.87 35.6426 971.589 35.833 971.267 35.9736C970.944 36.1084 970.602 36.1758 970.238 36.1758H969.518C969.154 36.1758 968.812 36.1084 968.489 35.9736C968.167 35.833 967.886 35.6426 967.646 35.4023C967.405 35.1621 967.215 34.8809 967.074 34.5586C966.939 34.2363 966.872 33.8936 966.872 33.5303V29.4697C966.872 29.1064 966.939 28.7637 967.074 28.4414C967.215 28.1191 967.405 27.8379 967.646 27.5977C967.886 27.3574 968.167 27.1699 968.489 27.0352C968.812 26.8945 969.154 26.8242 969.518 26.8242H970.238C970.602 26.8242 970.944 26.8945 971.267 27.0352C971.589 27.1699 971.87 27.3574 972.11 27.5977C972.351 27.8379 972.538 28.1191 972.673 28.4414C972.813 28.7637 972.884 29.1064 972.884 29.4697V33.5303ZM971.803 29.4082C971.803 29.1914 971.762 28.9893 971.68 28.8018C971.598 28.6084 971.486 28.4414 971.346 28.3008C971.205 28.1602 971.038 28.0488 970.845 27.9668C970.657 27.8848 970.455 27.8438 970.238 27.8438H969.518C969.301 27.8438 969.096 27.8848 968.902 27.9668C968.715 28.0488 968.551 28.1602 968.41 28.3008C968.27 28.4414 968.158 28.6084 968.076 28.8018C967.994 28.9893 967.953 29.1914 967.953 29.4082V33.5918C967.953 33.8086 967.994 34.0137 968.076 34.207C968.158 34.3945 968.27 34.5586 968.41 34.6992C968.551 34.8398 968.715 34.9512 968.902 35.0332C969.096 35.1152 969.301 35.1562 969.518 35.1562H970.238C970.455 35.1562 970.657 35.1152 970.845 35.0332C971.038 34.9512 971.205 34.8398 971.346 34.6992C971.486 34.5586 971.598 34.3945 971.68 34.207C971.762 34.0137 971.803 33.8086 971.803 33.5918V29.4082ZM982.622 36H982.033L979.924 29.2148L979.889 28.749L979.854 29.2148L977.744 36H977.146L974.141 27H975.239L977.384 33.8027L977.419 34.2686L977.454 33.8027L979.563 27H980.214L982.314 33.8027L982.35 34.2686L982.385 33.8027L984.529 27H985.628L982.622 36ZM991.824 36V29.4082C991.824 29.1914 991.783 28.9893 991.701 28.8018C991.619 28.6084 991.508 28.4414 991.367 28.3008C991.227 28.1602 991.06 28.0488 990.866 27.9668C990.679 27.8848 990.477 27.8438 990.26 27.8438H989.539C989.322 27.8438 989.117 27.8848 988.924 27.9668C988.736 28.0488 988.572 28.1602 988.432 28.3008C988.291 28.4414 988.18 28.6084 988.098 28.8018C988.016 28.9893 987.975 29.1914 987.975 29.4082V36H986.894V27H987.254L987.843 27.9141C988.089 27.5801 988.396 27.3164 988.766 27.123C989.141 26.9238 989.548 26.8242 989.987 26.8242H990.26C990.623 26.8242 990.966 26.8945 991.288 27.0352C991.61 27.1699 991.892 27.3574 992.132 27.5977C992.372 27.8379 992.56 28.1191 992.694 28.4414C992.835 28.7637 992.905 29.1064 992.905 29.4697V36H991.824ZM995.428 36V23.3965H996.509V36H995.428ZM1004.88 33.5303C1004.88 33.8936 1004.81 34.2363 1004.67 34.5586C1004.53 34.8809 1004.34 35.1621 1004.1 35.4023C1003.86 35.6426 1003.58 35.833 1003.26 35.9736C1002.94 36.1084 1002.59 36.1758 1002.23 36.1758H1001.51C1001.15 36.1758 1000.8 36.1084 1000.48 35.9736C1000.16 35.833 999.878 35.6426 999.638 35.4023C999.397 35.1621 999.207 34.8809 999.066 34.5586C998.932 34.2363 998.864 33.8936 998.864 33.5303V29.4697C998.864 29.1064 998.932 28.7637 999.066 28.4414C999.207 28.1191 999.397 27.8379 999.638 27.5977C999.878 27.3574 1000.16 27.1699 1000.48 27.0352C1000.8 26.8945 1001.15 26.8242 1001.51 26.8242H1002.23C1002.59 26.8242 1002.94 26.8945 1003.26 27.0352C1003.58 27.1699 1003.86 27.3574 1004.1 27.5977C1004.34 27.8379 1004.53 28.1191 1004.67 28.4414C1004.81 28.7637 1004.88 29.1064 1004.88 29.4697V33.5303ZM1003.79 29.4082C1003.79 29.1914 1003.75 28.9893 1003.67 28.8018C1003.59 28.6084 1003.48 28.4414 1003.34 28.3008C1003.2 28.1602 1003.03 28.0488 1002.84 27.9668C1002.65 27.8848 1002.45 27.8438 1002.23 27.8438H1001.51C1001.29 27.8438 1001.09 27.8848 1000.89 27.9668C1000.71 28.0488 1000.54 28.1602 1000.4 28.3008C1000.26 28.4414 1000.15 28.6084 1000.07 28.8018C999.986 28.9893 999.945 29.1914 999.945 29.4082V33.5918C999.945 33.8086 999.986 34.0137 1000.07 34.207C1000.15 34.3945 1000.26 34.5586 1000.4 34.6992C1000.54 34.8398 1000.71 34.9512 1000.89 35.0332C1001.09 35.1152 1001.29 35.1562 1001.51 35.1562H1002.23C1002.45 35.1562 1002.65 35.1152 1002.84 35.0332C1003.03 34.9512 1003.2 34.8398 1003.34 34.6992C1003.48 34.5586 1003.59 34.3945 1003.67 34.207C1003.75 34.0137 1003.79 33.8086 1003.79 33.5918V29.4082ZM1012.69 36L1012.09 35.1035C1011.85 35.4258 1011.54 35.6865 1011.17 35.8857C1010.8 36.0791 1010.4 36.1758 1009.96 36.1758H1009.68C1009.32 36.1758 1008.98 36.1084 1008.66 35.9736C1008.33 35.833 1008.05 35.6426 1007.81 35.4023C1007.57 35.1621 1007.38 34.8809 1007.24 34.5586C1007.11 34.2363 1007.04 33.8936 1007.04 33.5303V33.4424C1007.04 33.0791 1007.11 32.7363 1007.24 32.4141C1007.38 32.0918 1007.57 31.8105 1007.81 31.5703C1008.05 31.3301 1008.33 31.1426 1008.66 31.0078C1008.98 30.8672 1009.32 30.7969 1009.68 30.7969H1011.97V29.4082C1011.97 29.1914 1011.93 28.9893 1011.85 28.8018C1011.76 28.6084 1011.65 28.4414 1011.51 28.3008C1011.37 28.1602 1011.2 28.0488 1011.01 27.9668C1010.82 27.8848 1010.62 27.8438 1010.4 27.8438H1009.77C1009.55 27.8438 1009.35 27.8848 1009.16 27.9668C1008.97 28.0488 1008.8 28.1602 1008.66 28.3008C1008.52 28.4414 1008.41 28.6084 1008.33 28.8018C1008.25 28.9893 1008.21 29.1914 1008.21 29.4082V29.7334L1007.13 29.5576V29.4697C1007.13 29.1064 1007.19 28.7637 1007.33 28.4414C1007.47 28.1191 1007.66 27.8379 1007.9 27.5977C1008.14 27.3574 1008.42 27.1699 1008.74 27.0352C1009.07 26.8945 1009.41 26.8242 1009.77 26.8242H1010.4C1010.77 26.8242 1011.11 26.8945 1011.43 27.0352C1011.75 27.1699 1012.04 27.3574 1012.28 27.5977C1012.52 27.8379 1012.7 28.1191 1012.84 28.4414C1012.98 28.7637 1013.05 29.1064 1013.05 29.4697V36H1012.69ZM1011.97 31.6406H1009.68C1009.47 31.6406 1009.26 31.6816 1009.07 31.7637C1008.88 31.8457 1008.72 31.96 1008.58 32.1064C1008.44 32.2471 1008.32 32.4141 1008.24 32.6074C1008.16 32.7949 1008.12 32.9971 1008.12 33.2139V33.5918C1008.12 33.8086 1008.16 34.0137 1008.24 34.207C1008.32 34.3945 1008.44 34.5586 1008.58 34.6992C1008.72 34.8398 1008.88 34.9512 1009.07 35.0332C1009.26 35.1152 1009.47 35.1562 1009.68 35.1562H1010.4C1010.62 35.1562 1010.82 35.1152 1011.01 35.0332C1011.2 34.9512 1011.37 34.8398 1011.51 34.6992C1011.65 34.5586 1011.76 34.3945 1011.85 34.207C1011.93 34.0137 1011.97 33.8086 1011.97 33.5918V31.6406ZM1020.86 36L1020.27 35.0859C1020.02 35.4199 1019.71 35.6865 1019.34 35.8857C1018.97 36.0791 1018.57 36.1758 1018.13 36.1758H1017.86C1017.49 36.1758 1017.15 36.1084 1016.83 35.9736C1016.51 35.833 1016.23 35.6426 1015.99 35.4023C1015.75 35.1621 1015.55 34.8809 1015.41 34.5586C1015.28 34.2363 1015.21 33.8936 1015.21 33.5303V29.4697C1015.21 29.1064 1015.28 28.7637 1015.41 28.4414C1015.55 28.1191 1015.75 27.8379 1015.99 27.5977C1016.23 27.3574 1016.51 27.1699 1016.83 27.0352C1017.15 26.8945 1017.49 26.8242 1017.86 26.8242H1018.13C1018.53 26.8242 1018.91 26.9062 1019.25 27.0703C1019.6 27.2344 1019.9 27.4629 1020.14 27.7559V23.3965H1021.22V36H1020.86ZM1020.14 29.4082C1020.14 29.1914 1020.1 28.9893 1020.02 28.8018C1019.94 28.6084 1019.83 28.4414 1019.69 28.3008C1019.54 28.1602 1019.38 28.0488 1019.18 27.9668C1019 27.8848 1018.79 27.8438 1018.58 27.8438H1017.86C1017.64 27.8438 1017.44 27.8848 1017.24 27.9668C1017.05 28.0488 1016.89 28.1602 1016.75 28.3008C1016.61 28.4414 1016.5 28.6084 1016.42 28.8018C1016.33 28.9893 1016.29 29.1914 1016.29 29.4082V33.5918C1016.29 33.8086 1016.33 34.0137 1016.42 34.207C1016.5 34.3945 1016.61 34.5586 1016.75 34.6992C1016.89 34.8398 1017.05 34.9512 1017.24 35.0332C1017.44 35.1152 1017.64 35.1562 1017.86 35.1562H1018.58C1018.79 35.1562 1019 35.1152 1019.18 35.0332C1019.38 34.9512 1019.54 34.8398 1019.69 34.6992C1019.83 34.5586 1019.94 34.3945 1020.02 34.207C1020.1 34.0137 1020.14 33.8086 1020.14 33.5918V29.4082Z" fill="white"/>
</svg>
